name C:/MyDriveSym/Projects/mobilecap/Data\Session20210813_0002\mocap\ForceDataProcessed\walkingTS1_forces.mot
datacolumns 19
datarows 24
range 1.37950000 1.39100000
endheader 
time	R_ground_force_vx	R_ground_force_vy	R_ground_force_vz	R_ground_force_px	R_ground_force_py	R_ground_force_pz	R_ground_torque_x	R_ground_torque_y	R_ground_torque_z	L_ground_force_vx	L_ground_force_vy	L_ground_force_vz	L_ground_force_px	L_ground_force_py	L_ground_force_pz	L_ground_torque_x	L_ground_torque_y	L_ground_torque_z	
          1.37950000	          0.00000000	          0.00000000	          0.00000000	          1.19331900	          0.00000000	         -0.20809400	          0.00000000	          0.00000000	          0.00000000	         29.14471200	        750.22085800	         11.47967100	          1.01690400	          0.00600000	         -0.28586900	          0.00000000	          3.74292100	          0.00000000	
          1.38000000	          0.00000000	          0.00000000	          0.00000000	          1.19420100	          0.00000000	         -0.20817100	          0.00000000	          0.00000000	          0.00000000	         29.38377000	        750.48710500	         11.56009000	          1.01690700	          0.00600000	         -0.28589400	          0.00000000	          3.74389900	          0.00000000	
          1.38050000	          0.00000000	          0.00000000	          0.00000000	          1.19508300	          0.00000000	         -0.20824800	          0.00000000	          0.00000000	          0.00000000	         29.62347800	        750.75410400	         11.64061100	          1.01690900	          0.00600000	         -0.28592000	          0.00000000	          3.74484300	          0.00000000	
          1.38100000	          0.00000000	          0.00000000	          0.00000000	          1.19596400	          0.00000000	         -0.20832600	          0.00000000	          0.00000000	          0.00000000	         29.86383400	        751.02183600	         11.72122800	          1.01691200	          0.00600000	         -0.28594500	          0.00000000	          3.74575100	          0.00000000	
          1.38150000	          0.00000000	          0.00000000	          0.00000000	          1.19684600	          0.00000000	         -0.20840300	          0.00000000	          0.00000000	          0.00000000	         30.10483900	        751.29027800	         11.80193400	          1.01691500	          0.00600000	         -0.28597100	          0.00000000	          3.74662400	          0.00000000	
          1.38200000	          0.00000000	          0.00000000	          0.00000000	          1.19772800	          0.00000000	         -0.20848000	          0.00000000	          0.00000000	          0.00000000	         30.34649000	        751.55940900	         11.88272400	          1.01691800	          0.00600000	         -0.28599600	          0.00000000	          3.74746200	          0.00000000	
          1.38250000	          0.00000000	          0.00000000	          0.00000000	          1.19861000	          0.00000000	         -0.20855700	          0.00000000	          0.00000000	          0.00000000	         30.58878700	        751.82920700	         11.96359300	          1.01692000	          0.00600000	         -0.28602100	          0.00000000	          3.74826500	          0.00000000	
          1.38300000	          0.00000000	          0.00000000	          0.00000000	          1.19949200	          0.00000000	         -0.20863400	          0.00000000	          0.00000000	          0.00000000	         30.83173000	        752.09965000	         12.04453300	          1.01692300	          0.00600000	         -0.28604600	          0.00000000	          3.74903300	          0.00000000	
          1.38350000	          0.00000000	          0.00000000	          0.00000000	          1.20037300	          0.00000000	         -0.20871100	          0.00000000	          0.00000000	          0.00000000	         31.07531600	        752.37071700	         12.12554000	          1.01692500	          0.00600000	         -0.28607100	          0.00000000	          3.74976600	          0.00000000	
          1.38400000	          0.00000000	          0.00000000	          0.00000000	          1.20125500	          0.00000000	         -0.20878900	          0.00000000	          0.00000000	          0.00000000	         31.31954500	        752.64238500	         12.20660700	          1.01692800	          0.00600000	         -0.28609600	          0.00000000	          3.75046400	          0.00000000	
          1.38450000	          0.00000000	          0.00000000	          0.00000000	          1.20213700	          0.00000000	         -0.20886600	          0.00000000	          0.00000000	          0.00000000	         31.56441600	        752.91463300	         12.28772900	          1.01693000	          0.00600000	         -0.28612100	          0.00000000	          3.75112800	          0.00000000	
          1.38500000	          0.00000000	          0.00000000	          0.00000000	          1.20301900	          0.00000000	         -0.20894300	          0.00000000	          0.00000000	          0.00000000	         31.80992700	        753.18743700	         12.36890000	          1.01693300	          0.00600000	         -0.28614500	          0.00000000	          3.75175700	          0.00000000	
          1.38550000	          0.00000000	          0.00000000	          0.00000000	          1.20390100	          0.00000000	         -0.20902000	          0.00000000	          0.00000000	          0.00000000	         32.05607800	        753.46077700	         12.45011300	          1.01693500	          0.00600000	         -0.28617000	          0.00000000	          3.75235100	          0.00000000	
          1.38600000	          0.00000000	          0.00000000	          0.00000000	          1.20478200	          0.00000000	         -0.20909700	          0.00000000	          0.00000000	          0.00000000	         32.30286600	        753.73462800	         12.53136300	          1.01693800	          0.00600000	         -0.28619400	          0.00000000	          3.75291200	          0.00000000	
          1.38650000	          0.00000000	          0.00000000	          0.00000000	          1.20566400	          0.00000000	         -0.20917400	          0.00000000	          0.00000000	          0.00000000	         32.55029100	        754.00896900	         12.61264400	          1.01694000	          0.00600000	         -0.28621800	          0.00000000	          3.75343700	          0.00000000	
          1.38700000	          0.00000000	          0.00000000	          0.00000000	          1.20654600	          0.00000000	         -0.20925100	          0.00000000	          0.00000000	          0.00000000	         32.79835100	        754.28377800	         12.69394900	          1.01694200	          0.00600000	         -0.28624200	          0.00000000	          3.75392900	          0.00000000	
          1.38750000	          0.00000000	          0.00000000	          0.00000000	          1.20742800	          0.00000000	         -0.20932900	          0.00000000	          0.00000000	          0.00000000	         33.04704400	        754.55903000	         12.77527200	          1.01694500	          0.00600000	         -0.28626600	          0.00000000	          3.75438600	          0.00000000	
          1.38800000	          0.00000000	          0.00000000	          0.00000000	          1.20831000	          0.00000000	         -0.20940600	          0.00000000	          0.00000000	          0.00000000	         33.29636900	        754.83470400	         12.85660800	          1.01694700	          0.00600000	         -0.28629000	          0.00000000	          3.75480900	          0.00000000	
          1.38850000	          0.00000000	          0.00000000	          0.00000000	          1.20919100	          0.00000000	         -0.20948300	          0.00000000	          0.00000000	          0.00000000	         33.54632500	        755.11077600	         12.93795000	          1.01694900	          0.00600000	         -0.28631300	          0.00000000	          3.75519800	          0.00000000	
          1.38900000	          0.00000000	          0.00000000	          0.00000000	          1.21007300	          0.00000000	         -0.20956000	          0.00000000	          0.00000000	          0.00000000	         33.79690900	        755.38722400	         13.01929200	          1.01695200	          0.00600000	         -0.28633700	          0.00000000	          3.75555300	          0.00000000	
          1.38950000	          0.00000000	          0.00000000	          0.00000000	          1.21095500	          0.00000000	         -0.20963700	          0.00000000	          0.00000000	          0.00000000	         34.04812000	        755.66402300	         13.10062900	          1.01695400	          0.00600000	         -0.28636000	          0.00000000	          3.75587500	          0.00000000	
          1.39000000	          0.00000000	          0.00000000	          0.00000000	          1.21183700	          0.00000000	         -0.20971400	          0.00000000	          0.00000000	          0.00000000	         34.29995600	        755.94115100	         13.18195300	          1.01695600	          0.00600000	         -0.28638400	          0.00000000	          3.75616200	          0.00000000	
          1.39050000	          0.00000000	          0.00000000	          0.00000000	          1.21271900	          0.00000000	         -0.20979100	          0.00000000	          0.00000000	          0.00000000	         34.55241500	        756.21858400	         13.26325900	          1.01695800	          0.00600000	         -0.28640700	          0.00000000	          3.75641700	          0.00000000	
          1.39100000	          0.00000000	          0.00000000	          0.00000000	          1.21360000	          0.00000000	         -0.20986900	          0.00000000	          0.00000000	          0.00000000	         34.80549500	        756.49629800	         13.34454000	          1.01696100	          0.00600000	         -0.28643000	          0.00000000	          3.75663700	          0.00000000	
